<svg width="108" height="36" viewBox="0 0 108 36" fill="none" xmlns="http://www.w3.org/2000/svg">
<path d="M15.4181 0.432866V35.519H8.41432V8.41683L0 11.0621V5.60321L14.6643 0.432866H15.4181Z" fill="white"/>
<path d="M45.0142 0.144289H46.0356V5.67535H45.6222C43.7739 5.67535 42.1283 5.9479 40.6854 6.49299C39.2425 7.03808 38.0185 7.81563 37.0133 8.82565C36.0243 9.81964 35.2623 11.022 34.7273 12.4329C34.2085 13.8437 33.9491 15.4228 33.9491 17.1703V22.99C33.9491 24.2405 34.0707 25.3467 34.3139 26.3086C34.5733 27.2545 34.9381 28.0481 35.4082 28.6894C35.8946 29.3146 36.4621 29.7876 37.1106 30.1082C37.7591 30.4128 38.4886 30.5651 39.2993 30.5651C40.0612 30.5651 40.7503 30.4048 41.3664 30.0842C41.9986 29.7635 42.5337 29.3146 42.9714 28.7375C43.4254 28.1443 43.7658 27.4549 43.9928 26.6693C44.236 25.8677 44.3576 24.994 44.3576 24.0481C44.3576 23.1022 44.236 22.2285 43.9928 21.4269C43.7658 20.6252 43.4254 19.9359 42.9714 19.3587C42.5174 18.7655 41.9662 18.3086 41.3177 17.988C40.6692 17.6673 39.9397 17.507 39.129 17.507C38.0266 17.507 37.0538 17.7635 36.2108 18.2766C35.3839 18.7735 34.7354 19.4148 34.2653 20.2004C33.7951 20.986 33.5438 21.8116 33.5114 22.6774L31.3956 21.3307C31.4443 20.0962 31.7037 18.9259 32.1738 17.8196C32.6602 16.7134 33.3249 15.7355 34.168 14.8858C35.0272 14.02 36.0567 13.3467 37.2565 12.8657C38.4562 12.3687 39.81 12.1202 41.3177 12.1202C42.9714 12.1202 44.4224 12.4329 45.6708 13.0581C46.9354 13.6834 47.9892 14.5411 48.8322 15.6313C49.6753 16.7214 50.3076 17.98 50.7291 19.4068C51.1506 20.8337 51.3614 22.3567 51.3614 23.976C51.3614 25.6754 51.0777 27.2545 50.5102 28.7134C49.959 30.1723 49.1565 31.4469 48.1027 32.5371C47.0651 33.6273 45.8167 34.477 44.3576 35.0862C42.8984 35.6954 41.261 36 39.4452 36C37.5645 36 35.8541 35.6633 34.3139 34.99C32.7899 34.3006 31.4767 33.3387 30.3742 32.1042C29.2718 30.8697 28.4206 29.4028 27.8208 27.7034C27.2371 26.004 26.9453 24.1443 26.9453 22.1242V19.4309C26.9453 16.6092 27.3587 14.0281 28.1855 11.6874C29.0286 9.33066 30.2364 7.29459 31.8091 5.57916C33.3817 3.8477 35.2785 2.50902 37.4997 1.56313C39.7208 0.617234 42.2256 0.144289 45.0142 0.144289Z" fill="white"/>
<path d="M79.401 25.9238C79.401 28.1202 78.8822 29.9719 77.8446 31.479C76.807 32.9699 75.3803 34.1002 73.5645 34.8697C71.7649 35.6232 69.7221 36 67.4362 36C65.1502 36 63.0993 35.6232 61.2835 34.8697C59.4677 34.1002 58.0329 32.9699 56.9791 31.479C55.9252 29.9719 55.3983 28.1202 55.3983 25.9238C55.3983 24.4489 55.6983 23.1182 56.2981 21.9319C56.898 20.7295 57.7329 19.7034 58.803 18.8537C59.8892 17.988 61.1619 17.3307 62.621 16.8818C64.0802 16.4168 65.669 16.1844 67.3875 16.1844C69.6897 16.1844 71.7487 16.5852 73.5645 17.3868C75.3803 18.1884 76.807 19.3186 77.8446 20.7776C78.8822 22.2365 79.401 23.9519 79.401 25.9238ZM72.3486 25.4669C72.3486 24.3928 72.1378 23.4709 71.7163 22.7014C71.311 21.9158 70.7354 21.3146 69.9896 20.8978C69.2439 20.481 68.3765 20.2725 67.3875 20.2725C66.3986 20.2725 65.5312 20.481 64.7854 20.8978C64.0396 21.3146 63.456 21.9158 63.0345 22.7014C62.6291 23.4709 62.4265 24.3928 62.4265 25.4669C62.4265 26.5251 62.6291 27.4389 63.0345 28.2084C63.456 28.978 64.0396 29.5711 64.7854 29.988C65.5474 30.3888 66.431 30.5892 67.4362 30.5892C68.4413 30.5892 69.3087 30.3888 70.0383 29.988C70.7841 29.5711 71.3515 28.978 71.7406 28.2084C72.1459 27.4389 72.3486 26.5251 72.3486 25.4669ZM78.6471 9.78757C78.6471 11.5671 78.1689 13.1463 77.2123 14.5251C76.2558 15.8878 74.9264 16.9539 73.224 17.7234C71.5379 18.493 69.6086 18.8778 67.4362 18.8778C65.2475 18.8778 63.302 18.493 61.5996 17.7234C59.8973 16.9539 58.5679 15.8878 57.6113 14.5251C56.6548 13.1463 56.1765 11.5671 56.1765 9.78757C56.1765 7.67134 56.6548 5.89178 57.6113 4.4489C58.5841 2.98998 59.9135 1.88377 61.5996 1.13026C63.302 0.376754 65.2313 0 67.3875 0C69.5762 0 71.5136 0.376754 73.1997 1.13026C74.902 1.88377 76.2315 2.98998 77.188 4.4489C78.1608 5.89178 78.6471 7.67134 78.6471 9.78757ZM71.6433 10.1002C71.6433 9.15431 71.4731 8.33667 71.1326 7.64729C70.7922 6.94188 70.3058 6.39679 69.6735 6.01202C69.0574 5.62725 68.2954 5.43487 67.3875 5.43487C66.512 5.43487 65.7582 5.61924 65.1259 5.98798C64.5098 6.35671 64.0315 6.89379 63.6911 7.5992C63.3668 8.28858 63.2047 9.12224 63.2047 10.1002C63.2047 11.0461 63.3668 11.8798 63.6911 12.6012C64.0315 13.3066 64.5179 13.8597 65.1502 14.2605C65.7825 14.6613 66.5445 14.8617 67.4362 14.8617C68.3279 14.8617 69.0817 14.6613 69.6978 14.2605C70.3301 13.8597 70.8084 13.3066 71.1326 12.6012C71.4731 11.8798 71.6433 11.0461 71.6433 10.1002Z" fill="white"/>
<path d="M108 25.9238C108 28.1202 107.481 29.9719 106.444 31.479C105.406 32.9699 103.979 34.1002 102.163 34.8697C100.364 35.6232 98.3211 36 96.0351 36C93.7492 36 91.6983 35.6232 89.8825 34.8697C88.0667 34.1002 86.6318 32.9699 85.578 31.479C84.5242 29.9719 83.9973 28.1202 83.9973 25.9238C83.9973 24.4489 84.2972 23.1182 84.8971 21.9319C85.497 20.7295 86.3319 19.7034 87.4019 18.8537C88.4882 17.988 89.7609 17.3307 91.22 16.8818C92.6791 16.4168 94.268 16.1844 95.9865 16.1844C98.2887 16.1844 100.348 16.5852 102.163 17.3868C103.979 18.1884 105.406 19.3186 106.444 20.7776C107.481 22.2365 108 23.9519 108 25.9238ZM100.948 25.4669C100.948 24.3928 100.737 23.4709 100.315 22.7014C99.9099 21.9158 99.3344 21.3146 98.5886 20.8978C97.8428 20.481 96.9755 20.2725 95.9865 20.2725C94.9975 20.2725 94.1301 20.481 93.3844 20.8978C92.6386 21.3146 92.0549 21.9158 91.6334 22.7014C91.2281 23.4709 91.0254 24.3928 91.0254 25.4669C91.0254 26.5251 91.2281 27.4389 91.6334 28.2084C92.0549 28.978 92.6386 29.5711 93.3844 29.988C94.1464 30.3888 95.0299 30.5892 96.0351 30.5892C97.0403 30.5892 97.9077 30.3888 98.6372 29.988C99.383 29.5711 99.9505 28.978 100.34 28.2084C100.745 27.4389 100.948 26.5251 100.948 25.4669ZM107.246 9.78757C107.246 11.5671 106.768 13.1463 105.811 14.5251C104.855 15.8878 103.525 16.9539 101.823 17.7234C100.137 18.493 98.2076 18.8778 96.0351 18.8778C93.8464 18.8778 91.9009 18.493 90.1986 17.7234C88.4963 16.9539 87.1669 15.8878 86.2103 14.5251C85.2538 13.1463 84.7755 11.5671 84.7755 9.78757C84.7755 7.67134 85.2538 5.89178 86.2103 4.4489C87.1831 2.98998 88.5125 1.88377 90.1986 1.13026C91.9009 0.376754 93.8302 0 95.9865 0C98.1752 0 100.113 0.376754 101.799 1.13026C103.501 1.88377 104.83 2.98998 105.787 4.4489C106.76 5.89178 107.246 7.67134 107.246 9.78757ZM100.242 10.1002C100.242 9.15431 100.072 8.33667 99.7316 7.64729C99.3911 6.94188 98.9047 6.39679 98.2725 6.01202C97.6564 5.62725 96.8944 5.43487 95.9865 5.43487C95.111 5.43487 94.3571 5.61924 93.7248 5.98798C93.1088 6.35671 92.6305 6.89379 92.29 7.5992C91.9658 8.28858 91.8036 9.12224 91.8036 10.1002C91.8036 11.0461 91.9658 11.8798 92.29 12.6012C92.6305 13.3066 93.1169 13.8597 93.7492 14.2605C94.3814 14.6613 95.1434 14.8617 96.0351 14.8617C96.9268 14.8617 97.6807 14.6613 98.2968 14.2605C98.9291 13.8597 99.4073 13.3066 99.7316 12.6012C100.072 11.8798 100.242 11.0461 100.242 10.1002Z" fill="white"/>
</svg>
