<svg width="748" height="280" viewBox="0 0 748 280" fill="none" xmlns="http://www.w3.org/2000/svg">
<path d="M109.307 14.2739L9.53125 151.374C31.8751 143.476 54.9851 137.776 78.9115 135.034C79.4428 134.971 79.9729 134.913 80.5016 134.859L122.311 76.8247V133.283C142.689 133.933 162.661 136.524 182.413 140.332V14.2817L109.307 14.2739Z" fill="#E8E9EF"/>
<path d="M212.992 160.228V210.415H182.427V256.711H122.313V210.415H5.27355L0 164.473L9.52952 151.373C31.8734 143.476 54.9834 137.776 78.9097 135.033C79.4411 134.971 79.9711 134.913 80.4999 134.858L62.2069 160.244H122.313V133.283C142.691 133.932 162.664 136.523 182.415 140.332V160.228H212.992Z" fill="url(#paint0_linear_245_19987)"/>
<path d="M467.1 135.139C467.1 154.202 464.059 171.802 458.414 187.43C435.513 191.869 412.028 193.655 387.452 191.612C398.807 178.984 405.598 159.003 405.598 135.139C405.598 124.444 404.232 114.558 401.729 105.77C394.486 80.5789 377.686 64.4529 356.074 64.4529C327.253 64.4529 306.871 93.787 306.871 135.139C306.871 150.914 309.834 164.994 315.108 176.377C292.029 169.841 269.19 162.691 246.304 156.124C245.433 149.164 245 142.157 245.008 135.143C245.008 61.6129 291.05 9.6792 356.074 9.6792C402.479 9.6792 438.965 35.8542 456.232 77.342C463.255 94.2927 467.1 113.807 467.1 135.139Z" fill="#E8E9EF"/>
<path d="M458.419 187.43C442.211 232.357 404.542 260.96 356.043 260.96C327.025 260.96 301.779 250.608 282.724 232.56C263.259 214.142 250.251 187.707 246.273 156.108C269.159 162.675 291.998 169.826 315.077 176.362C317.579 181.876 320.877 186.988 324.862 191.535C333.13 200.845 343.832 206.194 356.043 206.194C368.377 206.194 379.141 200.884 387.456 191.632C412.032 193.659 435.517 191.869 458.419 187.43Z" fill="url(#paint1_linear_245_19987)"/>
<path d="M604.524 14.2739L495.219 164.473L496.724 177.591C519.164 170.519 541.323 161.45 563.678 151.556L617.528 76.8247V127.082C620.468 125.748 623.417 124.418 626.373 123.09C643.18 115.554 660.262 108.372 677.634 102.039V14.2739H604.524Z" fill="#E8E9EF"/>
<path d="M708.214 160.228V210.415H677.648V256.711H617.531V210.415H500.495L496.727 177.591C519.167 170.518 541.325 161.45 563.681 151.556L557.432 160.228H617.531V127.081C620.471 125.748 623.419 124.418 626.375 123.09C643.183 115.554 660.265 108.372 677.637 102.039V160.228H708.214Z" fill="url(#paint2_linear_245_19987)"/>
<path d="M507.993 31.0088C515.048 23.9151 515.048 12.414 507.993 5.32028C500.938 -1.77341 489.5 -1.7734 482.446 5.3203C475.391 12.414 475.391 23.9151 482.446 31.0088C489.5 38.1025 500.938 38.1025 507.993 31.0088Z" fill="url(#paint3_linear_245_19987)"/>
<path d="M702.442 126.011C716.143 112.234 716.143 89.8968 702.442 76.1197C688.74 62.3425 666.526 62.3425 652.824 76.1196C639.123 89.8968 639.123 112.234 652.824 126.011C666.526 139.788 688.74 139.788 702.442 126.011Z" fill="url(#paint4_linear_245_19987)"/>
<path d="M261.851 95.2616C275.335 95.2616 286.265 84.2708 286.265 70.7128C286.265 57.1549 275.335 46.1641 261.851 46.1641C248.368 46.1641 237.438 57.1549 237.438 70.7128C237.438 84.2708 248.368 95.2616 261.851 95.2616Z" fill="url(#paint5_linear_245_19987)"/>
<path d="M10.667 59.5589C16.5583 59.5589 21.3341 54.7567 21.3341 48.8329C21.3341 42.9091 16.5583 38.1069 10.667 38.1069C4.77579 38.1069 0 42.9091 0 48.8329C0 54.7567 4.77579 59.5589 10.667 59.5589Z" fill="url(#paint6_linear_245_19987)"/>
<path d="M242.91 13.6202C245.077 11.4415 245.077 7.90911 242.91 5.73041C240.744 3.55171 237.231 3.55171 235.064 5.73041C232.897 7.90912 232.897 11.4415 235.064 13.6202C237.231 15.7989 240.744 15.7989 242.91 13.6202Z" fill="url(#paint7_linear_245_19987)"/>
<path d="M535.189 68.8024C538.253 68.8024 540.737 66.3046 540.737 63.2234C540.737 60.1423 538.253 57.6445 535.189 57.6445C532.125 57.6445 529.641 60.1423 529.641 63.2234C529.641 66.3046 532.125 68.8024 535.189 68.8024Z" fill="url(#paint8_linear_245_19987)"/>
<path d="M739.425 156.12C744.161 156.12 747.999 152.26 747.999 147.499C747.999 142.737 744.161 138.877 739.425 138.877C734.69 138.877 730.852 142.737 730.852 147.499C730.852 152.26 734.69 156.12 739.425 156.12Z" fill="url(#paint9_linear_245_19987)"/>
<path d="M87.4352 265.315C89.8384 255.076 83.5323 244.817 73.3502 242.401C63.168 239.984 52.9655 246.325 50.5623 256.564C48.1591 266.802 54.4652 277.061 64.6474 279.477C74.8295 281.894 85.032 275.553 87.4352 265.315Z" fill="url(#paint10_linear_245_19987)"/>
<path d="M556.137 271.538C561.951 271.538 566.665 266.799 566.665 260.952C566.665 255.106 561.951 250.366 556.137 250.366C550.323 250.366 545.609 255.106 545.609 260.952C545.609 266.799 550.323 271.538 556.137 271.538Z" fill="url(#paint11_linear_245_19987)"/>
<defs>
<linearGradient id="paint0_linear_245_19987" x1="65.3718" y1="82.1582" x2="136.413" y2="247.792" gradientUnits="userSpaceOnUse">
<stop stop-color="#FFAE4A"/>
<stop offset="1" stop-color="#FF455A"/>
</linearGradient>
<linearGradient id="paint1_linear_245_19987" x1="307.111" y1="123.141" x2="391.134" y2="239.077" gradientUnits="userSpaceOnUse">
<stop stop-color="#FFAE4A"/>
<stop offset="0.88" stop-color="#FF455A"/>
</linearGradient>
<linearGradient id="paint2_linear_245_19987" x1="640.076" y1="81.2752" x2="584.264" y2="246.745" gradientUnits="userSpaceOnUse">
<stop offset="0.14" stop-color="#FFAE4A"/>
<stop offset="0.81" stop-color="#FF455A"/>
</linearGradient>
<linearGradient id="paint3_linear_245_19987" x1="478.721" y1="0.571806" x2="505.768" y2="29.0995" gradientUnits="userSpaceOnUse">
<stop offset="0.23" stop-color="#FFAE4A"/>
<stop offset="0.36" stop-color="#FF9E4D"/>
<stop offset="0.63" stop-color="#FF7353"/>
<stop offset="0.87" stop-color="#FF455A"/>
</linearGradient>
<linearGradient id="paint4_linear_245_19987" x1="645.591" y1="66.8968" x2="698.121" y2="122.3" gradientUnits="userSpaceOnUse">
<stop offset="0.23" stop-color="#FFAE4A"/>
<stop offset="0.36" stop-color="#FF9E4D"/>
<stop offset="0.63" stop-color="#FF7353"/>
<stop offset="0.87" stop-color="#FF455A"/>
</linearGradient>
<linearGradient id="paint5_linear_245_19987" x1="239.554" y1="46.9344" x2="276.108" y2="85.49" gradientUnits="userSpaceOnUse">
<stop offset="0.23" stop-color="#FFAE4A"/>
<stop offset="0.36" stop-color="#FF9E4D"/>
<stop offset="0.63" stop-color="#FF7353"/>
<stop offset="0.87" stop-color="#FF455A"/>
</linearGradient>
<linearGradient id="paint6_linear_245_19987" x1="0.924708" y1="38.4454" x2="16.8961" y2="55.2888" gradientUnits="userSpaceOnUse">
<stop offset="0.23" stop-color="#FFAE4A"/>
<stop offset="0.36" stop-color="#FF9E4D"/>
<stop offset="0.63" stop-color="#FF7353"/>
<stop offset="0.87" stop-color="#FF455A"/>
</linearGradient>
<linearGradient id="paint7_linear_245_19987" x1="233.923" y1="4.27575" x2="242.224" y2="13.0342" gradientUnits="userSpaceOnUse">
<stop offset="0.23" stop-color="#FFAE4A"/>
<stop offset="0.36" stop-color="#FF9E4D"/>
<stop offset="0.63" stop-color="#FF7353"/>
<stop offset="0.87" stop-color="#FF455A"/>
</linearGradient>
<linearGradient id="paint8_linear_245_19987" x1="530.124" y1="57.8235" x2="538.429" y2="66.5819" gradientUnits="userSpaceOnUse">
<stop offset="0.23" stop-color="#FFAE4A"/>
<stop offset="0.36" stop-color="#FF9E4D"/>
<stop offset="0.63" stop-color="#FF7353"/>
<stop offset="0.87" stop-color="#FF455A"/>
</linearGradient>
<linearGradient id="paint9_linear_245_19987" x1="731.598" y1="139.15" x2="744.433" y2="152.688" gradientUnits="userSpaceOnUse">
<stop offset="0.23" stop-color="#FFAE4A"/>
<stop offset="0.36" stop-color="#FF9E4D"/>
<stop offset="0.63" stop-color="#FF7353"/>
<stop offset="0.87" stop-color="#FF455A"/>
</linearGradient>
<linearGradient id="paint10_linear_245_19987" x1="51.6877" y1="242.488" x2="80.0501" y2="272.405" gradientUnits="userSpaceOnUse">
<stop offset="0.23" stop-color="#FFAE4A"/>
<stop offset="0.36" stop-color="#FF9E4D"/>
<stop offset="0.63" stop-color="#FF7353"/>
<stop offset="0.87" stop-color="#FF455A"/>
</linearGradient>
<linearGradient id="paint11_linear_245_19987" x1="556.553" y1="246.867" x2="555.872" y2="269.832" gradientUnits="userSpaceOnUse">
<stop offset="0.23" stop-color="#FFAE4A"/>
<stop offset="0.36" stop-color="#FF9E4D"/>
<stop offset="0.63" stop-color="#FF7353"/>
<stop offset="0.87" stop-color="#FF455A"/>
</linearGradient>
</defs>
</svg>
