<svg width="26" height="22" viewBox="0 0 26 22" fill="none" xmlns="http://www.w3.org/2000/svg">
<path d="M24.9154 18.5833C24.9154 19.158 24.6871 19.7091 24.2808 20.1154C23.8744 20.5217 23.3233 20.75 22.7487 20.75H3.2487C2.67406 20.75 2.12296 20.5217 1.71663 20.1154C1.3103 19.7091 1.08203 19.158 1.08203 18.5833V6.66667C1.08203 6.09203 1.3103 5.54093 1.71663 5.1346C2.12296 4.72827 2.67406 4.5 3.2487 4.5H7.58203L9.7487 1.25H16.2487L18.4154 4.5H22.7487C23.3233 4.5 23.8744 4.72827 24.2808 5.1346C24.6871 5.54093 24.9154 6.09203 24.9154 6.66667V18.5833Z" stroke="#F46F4E" stroke-width="2" stroke-linecap="round" stroke-linejoin="round"/>
<path d="M12.9987 16.4167C15.3919 16.4167 17.332 14.4766 17.332 12.0833C17.332 9.6901 15.3919 7.75 12.9987 7.75C10.6055 7.75 8.66536 9.6901 8.66536 12.0833C8.66536 14.4766 10.6055 16.4167 12.9987 16.4167Z" stroke="#F46F4E" stroke-width="2" stroke-linecap="round" stroke-linejoin="round"/>
</svg>
