<svg width="30" height="30" viewBox="0 0 30 30" fill="none" xmlns="http://www.w3.org/2000/svg">
<g clip-path="url(#clip0_294_36213)">
<path d="M2 2L6.49383 3.33333L8.38902 18.6308C8.46227 19.1444 8.70764 19.6125 9.07994 19.9489C9.45221 20.2854 9.92632 20.4674 10.4149 20.4615H23.1778C23.6196 20.4861 24.0568 20.3562 24.4225 20.0917C24.7884 19.8272 25.0627 19.4427 25.2037 18.9969L27.8981 10.3815C27.9985 10.0576 28.0253 9.71298 27.9759 9.37599C27.9266 9.03898 27.8026 8.71924 27.6144 8.44308C27.4183 8.14947 27.156 7.91282 26.8517 7.75477C26.5474 7.59674 26.2105 7.52237 25.8722 7.53846H7.33557M22.8334 28C22.2741 28 21.8205 27.5178 21.8205 26.9231C21.8205 26.3284 22.2741 25.8462 22.8334 25.8462C23.3928 25.8462 23.8463 26.3284 23.8463 26.9231C23.8463 27.5178 23.3928 28 22.8334 28ZM9.66533 28C9.10589 28 8.6524 27.5178 8.6524 26.9231C8.6524 26.3284 9.10589 25.8462 9.66533 25.8462C10.2247 25.8462 10.6783 26.3284 10.6783 26.9231C10.6783 27.5178 10.2247 28 9.66533 28Z" stroke="#9F9F9F" stroke-width="2.3" stroke-linecap="round" stroke-linejoin="round"/>
</g>
<defs>
<clipPath id="clip0_294_36213">
<rect width="30" height="30" fill="white"/>
</clipPath>
</defs>
</svg>
