<svg width="30" height="30" viewBox="0 0 30 30" fill="none" xmlns="http://www.w3.org/2000/svg">
<path fill-rule="evenodd" clip-rule="evenodd" d="M8.07856 8.4998C8.07856 5.10459 11.1472 2.2998 15.0008 2.2998C18.8543 2.2998 21.923 5.10459 21.923 8.4998C21.923 11.895 18.8543 14.6998 15.0008 14.6998C11.1472 14.6998 8.07856 11.895 8.07856 8.4998ZM15.0008 4.2998C12.4724 4.2998 10.3674 6.15126 10.3674 8.4998C10.3674 10.8484 12.4724 12.6998 15.0008 12.6998C17.5292 12.6998 19.6341 10.8484 19.6341 8.4998C19.6341 6.15126 17.5292 4.2998 15.0008 4.2998ZM3.53458 20.4473C5.1324 19.1851 8.63906 17.2498 15.0008 17.2498C21.3625 17.2498 24.8692 19.1851 26.467 20.4473C27.3957 21.1809 27.7008 22.2139 27.7008 23.1179C27.7008 25.6194 25.437 27.6998 22.5764 27.6998H7.42516C4.56453 27.6998 2.30078 25.6194 2.30078 23.1179C2.30078 22.2139 2.60589 21.1809 3.53458 20.4473ZM15.0008 19.2498C9.22408 19.2498 6.25928 20.9897 5.06835 21.9305C4.7799 22.1584 4.58967 22.5591 4.58967 23.1179C4.58967 24.5728 5.88968 25.6998 7.42516 25.6998H22.5764C24.1119 25.6998 25.4119 24.5728 25.4119 23.1179C25.4119 22.5591 25.2217 22.1584 24.9332 21.9305C23.7423 20.9897 20.7775 19.2498 15.0008 19.2498Z" fill="#9F9F9F"/>
</svg>
