<svg width="30" height="30" viewBox="0 0 30 30" fill="none" xmlns="http://www.w3.org/2000/svg">
<path d="M26.0516 5.76234C25.4132 5.1236 24.6551 4.6169 23.8208 4.2712C22.9865 3.92549 22.0922 3.74756 21.1891 3.74756C20.286 3.74756 19.3917 3.92549 18.5574 4.2712C17.7231 4.6169 16.9651 5.1236 16.3266 5.76234L15.0016 7.08734L13.6766 5.76234C12.387 4.47273 10.6379 3.74823 8.81411 3.74823C6.99032 3.74823 5.24123 4.47273 3.95161 5.76234C2.662 7.05196 1.9375 8.80105 1.9375 10.6248C1.9375 12.4486 2.662 14.1977 3.95161 15.4873L5.27661 16.8123L15.0016 26.5373L24.7266 16.8123L26.0516 15.4873C26.6904 14.8489 27.1971 14.0909 27.5428 13.2565C27.8885 12.4222 28.0664 11.5279 28.0664 10.6248C28.0664 9.72173 27.8885 8.82747 27.5428 7.99315C27.1971 7.15882 26.6904 6.40079 26.0516 5.76234V5.76234Z" stroke="#9F9F9F" stroke-width="2.3" stroke-linecap="round" stroke-linejoin="round"/>
</svg>
