<svg width="26" height="26" viewBox="0 0 26 26" fill="none" xmlns="http://www.w3.org/2000/svg">
<g filter="url(#filter0_b_2001_15753)">
<path d="M22.5786 4.99419C22.0253 4.44061 21.3683 4.00147 20.6452 3.70187C19.9221 3.40226 19.1471 3.24805 18.3644 3.24805C17.5817 3.24805 16.8067 3.40226 16.0836 3.70187C15.3605 4.00147 14.7036 4.44061 14.1503 4.99419L13.0019 6.14252L11.8536 4.99419C10.7359 3.87652 9.22004 3.24863 7.63942 3.24863C6.0588 3.24863 4.54292 3.87652 3.42525 4.99419C2.30759 6.11186 1.67969 7.62774 1.67969 9.20836C1.67969 10.789 2.30759 12.3049 3.42525 13.4225L4.57359 14.5709L13.0019 22.9992L21.4303 14.5709L22.5786 13.4225C23.1322 12.8692 23.5713 12.2122 23.8709 11.4892C24.1705 10.7661 24.3247 9.99105 24.3247 9.20836C24.3247 8.42566 24.1705 7.65064 23.8709 6.92756C23.5713 6.20448 23.1322 5.54751 22.5786 4.99419Z" fill="#F46F4E"/>
<path d="M14.8574 5.7013L14.8575 5.70113C15.318 5.24046 15.8647 4.87503 16.4664 4.6257C17.0681 4.37638 17.7131 4.24805 18.3644 4.24805C19.0158 4.24805 19.6607 4.37637 20.2624 4.6257C20.8642 4.87503 21.4109 5.24046 21.8713 5.70113L21.8716 5.70146C22.3323 6.16192 22.6978 6.70862 22.9471 7.31035C23.1964 7.91207 23.3247 8.55703 23.3247 9.20836C23.3247 9.85969 23.1964 10.5046 22.9471 11.1064C22.6978 11.7081 22.3323 12.2548 21.8716 12.7153L21.8715 12.7154L20.7231 13.8638L13.0019 21.585L5.28069 13.8638L4.13236 12.7154C3.20223 11.7853 2.67969 10.5238 2.67969 9.20836C2.67969 7.89296 3.20223 6.63143 4.13236 5.7013C5.06249 4.77117 6.32402 4.24863 7.63942 4.24863C8.95482 4.24863 10.2163 4.77117 11.1465 5.7013L12.2948 6.84963C12.6853 7.24016 13.3185 7.24016 13.709 6.84963L14.8574 5.7013Z" stroke="#F46F4E" stroke-width="2" stroke-linecap="round" stroke-linejoin="round"/>
</g>
<g filter="url(#filter1_b_2001_15753)">
<path d="M3.0717 13.7761L3.42525 13.4225L3.0717 13.7761L4.22003 14.9244L12.6484 23.3527C12.8436 23.548 13.1602 23.548 13.3555 23.3527L21.7838 14.9244L22.9321 13.7762C22.9321 13.7761 22.9321 13.7761 22.9321 13.7761C23.5321 13.1763 24.0081 12.4643 24.3328 11.6806C24.6576 10.8968 24.8247 10.0567 24.8247 9.20836C24.8247 8.35998 24.6576 7.51992 24.3328 6.73616C24.0081 5.9524 23.5321 5.24031 22.9321 4.64056C22.3323 4.0406 21.6203 3.56467 20.8366 3.23995C20.0529 2.9152 19.2128 2.74805 18.3644 2.74805C17.516 2.74805 16.676 2.9152 15.8922 3.23995C15.1085 3.56468 14.3964 4.04064 13.7967 4.64064C13.7967 4.64067 13.7966 4.64069 13.7966 4.64072L13.0019 5.43542L12.2071 4.64064C10.9957 3.4292 9.35265 2.74863 7.63942 2.74863C5.92619 2.74863 4.28313 3.4292 3.0717 4.64064C1.86026 5.85207 1.17969 7.49513 1.17969 9.20836C1.17969 10.9216 1.86026 12.5646 3.0717 13.7761Z" stroke="#F46F4E" stroke-linecap="round" stroke-linejoin="round"/>
</g>
<defs>
<filter id="filter0_b_2001_15753" x="-15.4203" y="-13.852" width="56.8445" height="53.951" filterUnits="userSpaceOnUse" color-interpolation-filters="sRGB">
<feFlood flood-opacity="0" result="BackgroundImageFix"/>
<feGaussianBlur in="BackgroundImageFix" stdDeviation="8.55"/>
<feComposite in2="SourceAlpha" operator="in" result="effect1_backgroundBlur_2001_15753"/>
<feBlend mode="normal" in="SourceGraphic" in2="effect1_backgroundBlur_2001_15753" result="shape"/>
</filter>
<filter id="filter1_b_2001_15753" x="-49.3203" y="-47.752" width="124.645" height="121.751" filterUnits="userSpaceOnUse" color-interpolation-filters="sRGB">
<feFlood flood-opacity="0" result="BackgroundImageFix"/>
<feGaussianBlur in="BackgroundImageFix" stdDeviation="25"/>
<feComposite in2="SourceAlpha" operator="in" result="effect1_backgroundBlur_2001_15753"/>
<feBlend mode="normal" in="SourceGraphic" in2="effect1_backgroundBlur_2001_15753" result="shape"/>
</filter>
</defs>
</svg>
