<svg width="25" height="25" viewBox="0 0 25 25" fill="none" xmlns="http://www.w3.org/2000/svg">
<path fill-rule="evenodd" clip-rule="evenodd" d="M0.0820312 9.8335C0.0820312 4.44872 4.44726 0.0834961 9.83203 0.0834961C15.2168 0.0834961 19.582 4.44872 19.582 9.8335C19.582 12.1356 18.7842 14.2513 17.4499 15.9193L24.3641 22.8335L22.832 24.3656L15.9179 17.4514C14.2499 18.7857 12.1341 19.5835 9.83203 19.5835C4.44726 19.5835 0.0820312 15.2183 0.0820312 9.8335ZM9.83203 2.25016C5.64387 2.25016 2.2487 5.64534 2.2487 9.8335C2.2487 14.0217 5.64387 17.4168 9.83203 17.4168C14.0202 17.4168 17.4154 14.0217 17.4154 9.8335C17.4154 5.64534 14.0202 2.25016 9.83203 2.25016Z" fill="#F46F4E"/>
</svg>
