<svg width="811" height="423" viewBox="0 0 811 423" fill="none" xmlns="http://www.w3.org/2000/svg">
<path opacity="0.3" d="M183.032 23.5269C295.274 -32.7796 420.766 27.5209 539.138 44.1165C575.097 49.1612 611.272 55.5768 646.417 67.9625C666.147 74.9208 688.236 83.0829 704.8 101.028C720.173 117.728 718.238 131.422 714.063 154.607C710.952 171.815 717.452 177.43 727.425 185.864C742.186 198.347 758.589 209.237 769.299 229.318C778.646 246.832 779.043 265.557 778.959 286.689C778.896 305.769 780.908 321.049 788.319 337.144C793.073 347.456 803.498 359.411 794.506 369.514C788.751 375.985 775.465 374.545 768.757 374.941C750.843 376.02 732.86 375.157 714.94 374.628C670.845 373.341 626.715 372.235 582.711 377.676C537.37 383.271 492.649 396.074 447.406 403.136C380.039 413.643 312.039 412.53 244.616 403.749C178.502 395.134 108.685 383.027 46.0506 349.363C27.1419 339.183 -7.65515 316.123 21.978 290.029C41.5061 272.829 70.6938 267.826 86.0045 241.676C99.2273 219.076 84.1046 194.283 74.1735 175.774C64.312 157.39 47.0318 130.017 64.3051 109.935C81.8219 89.5959 110.272 87.3275 131.275 79.1793C144.658 73.9884 158.521 68.2409 167.262 51.7636C171.842 43.1284 173.47 30.4017 180.534 26.171C180.986 25.8997 182.337 23.8748 183.032 23.5269Z" fill="#F46F4E"/>
<path d="M169.914 170.702H0V195.515H169.914C174.653 195.515 178.502 189.948 178.502 183.108C178.502 176.268 174.681 170.702 169.914 170.702Z" fill="white"/>
<path d="M810.305 160.48H604.307C599.567 160.48 595.719 166.047 595.719 172.887C595.719 179.727 599.567 185.293 604.307 185.293H810.305V160.48Z" fill="white"/>
<path d="M810.301 293.321H712.361C707.622 293.321 703.773 298.887 703.773 305.727C703.773 312.567 707.622 318.134 712.361 318.134H810.301V293.321Z" fill="white"/>
<path d="M242.139 32.7534C242.139 39.6004 238.297 45.1601 233.551 45.1601H23.4395C18.7001 45.1601 14.8516 39.5934 14.8516 32.7534C14.8516 25.8995 18.7001 20.3398 23.4395 20.3398H233.551C238.297 20.3398 242.139 25.9065 242.139 32.7534Z" fill="white"/>
<path d="M140.364 192.613H0V217.427H140.364C145.111 217.427 148.952 211.86 148.952 205.02C148.952 198.18 145.111 192.613 140.364 192.613Z" fill="white"/>
<path d="M810.307 178.37H691.51C686.763 178.37 682.922 183.936 682.922 190.776C682.922 197.616 686.763 203.183 691.51 203.183H810.307V178.37Z" fill="white"/>
<path d="M810.307 272.501H740.713C735.974 272.501 732.125 278.068 732.125 284.908C732.125 291.748 735.974 297.322 740.713 297.322H810.307V272.501Z" fill="white"/>
<path d="M266.858 57.2328C266.858 64.0867 263.017 69.6394 258.27 69.6394H48.1591C43.4197 69.6394 39.5781 64.0728 39.5781 57.2328C39.5781 50.3789 43.4197 44.8262 48.1591 44.8262H258.27C263.017 44.8262 266.858 50.3928 266.858 57.2328Z" fill="white"/>
<path d="M178.731 340.366H0V365.179H178.731C183.471 365.179 187.319 359.612 187.319 352.772C187.319 345.932 183.471 340.366 178.731 340.366Z" fill="white"/>
<path d="M151.715 317.382H0V342.216H151.715C156.454 342.216 160.296 336.65 160.296 329.81C160.296 322.97 156.468 317.382 151.715 317.382Z" fill="white"/>
<path opacity="0.5" d="M706.382 94.8981H693.313V81.8096C693.21 80.3111 692.542 78.9075 691.444 77.8824C690.346 76.8573 688.899 76.2871 687.397 76.2871C685.895 76.2871 684.449 76.8573 683.35 77.8824C682.252 78.9075 681.584 80.3111 681.482 81.8096V94.8981H668.398C667.587 94.8425 666.773 94.9541 666.007 95.2262C665.241 95.4982 664.539 95.9248 663.945 96.4795C663.351 97.0341 662.877 97.705 662.553 98.4505C662.23 99.1959 662.062 100 662.062 100.813C662.062 101.625 662.23 102.429 662.553 103.175C662.877 103.92 663.351 104.591 663.945 105.146C664.539 105.701 665.241 106.127 666.007 106.399C666.773 106.671 667.587 106.783 668.398 106.727H681.482V119.816C681.584 121.314 682.252 122.718 683.35 123.743C684.449 124.768 685.895 125.338 687.397 125.338C688.899 125.338 690.346 124.768 691.444 123.743C692.542 122.718 693.21 121.314 693.313 119.816V106.748H706.382C707.193 106.804 708.007 106.692 708.773 106.42C709.539 106.148 710.241 105.721 710.835 105.167C711.429 104.612 711.903 103.941 712.227 103.196C712.551 102.45 712.718 101.646 712.718 100.834C712.718 100.021 712.551 99.2168 712.227 98.4713C711.903 97.7259 711.429 97.055 710.835 96.5004C710.241 95.9457 709.539 95.5191 708.773 95.2471C708.007 94.975 707.193 94.8634 706.382 94.919V94.8981Z" fill="#F46F4E"/>
<path opacity="0.5" d="M109.011 264.2L102.636 270.546L96.2614 264.172C95.8847 263.782 95.4339 263.47 94.9353 263.255C94.4367 263.04 93.9003 262.927 93.3575 262.922C92.8147 262.917 92.2763 263.02 91.7738 263.226C91.2713 263.431 90.8148 263.734 90.4309 264.118C90.047 264.502 89.7435 264.958 89.5381 265.461C89.3327 265.963 89.2295 266.502 89.2346 267.044C89.2396 267.587 89.3528 268.123 89.5675 268.622C89.7822 269.12 90.0942 269.571 90.4851 269.948L96.8599 276.322L90.4712 282.723C89.7551 283.499 89.3672 284.521 89.3886 285.577C89.41 286.632 89.8391 287.638 90.586 288.384C91.3329 289.129 92.3396 289.557 93.395 289.577C94.4504 289.598 95.4727 289.208 96.2475 288.492L102.622 282.118L108.997 288.492C109.772 289.208 110.794 289.598 111.85 289.577C112.905 289.557 113.912 289.129 114.659 288.384C115.405 287.638 115.835 286.632 115.856 285.577C115.877 284.521 115.489 283.499 114.773 282.723L108.399 276.349L114.773 269.976C115.164 269.599 115.476 269.148 115.691 268.65C115.906 268.151 116.019 267.615 116.024 267.072C116.029 266.529 115.926 265.991 115.72 265.489C115.515 264.986 115.211 264.53 114.828 264.146C114.444 263.762 113.987 263.459 113.485 263.253C112.982 263.048 112.444 262.945 111.901 262.95C111.358 262.955 110.822 263.068 110.323 263.283C109.825 263.497 109.374 263.809 108.997 264.2H109.011Z" fill="#F46F4E"/>
<path opacity="0.5" d="M706.144 409.016L698.725 406.344L701.363 398.947C701.665 398.062 701.607 397.093 701.2 396.251C700.792 395.408 700.07 394.76 699.188 394.447C698.306 394.134 697.336 394.181 696.489 394.578C695.641 394.975 694.985 395.69 694.661 396.568L692.03 403.957L684.653 401.362C684.209 401.185 683.734 401.1 683.256 401.111C682.779 401.122 682.308 401.229 681.872 401.425C681.437 401.622 681.045 401.905 680.722 402.256C680.398 402.608 680.148 403.021 679.988 403.471C679.827 403.921 679.759 404.399 679.788 404.876C679.816 405.353 679.94 405.82 680.153 406.248C680.365 406.676 680.662 407.056 681.025 407.367C681.388 407.678 681.81 407.912 682.266 408.056L689.678 410.658L687.026 418.062C686.71 418.95 686.759 419.928 687.164 420.781C687.569 421.633 688.295 422.289 689.184 422.606C690.073 422.922 691.051 422.873 691.903 422.468C692.755 422.064 693.412 421.337 693.728 420.449L696.359 413.052L703.757 415.689C704.197 415.846 704.664 415.914 705.13 415.891C705.597 415.867 706.054 415.752 706.476 415.552C706.898 415.351 707.276 415.07 707.59 414.723C707.903 414.377 708.145 413.972 708.301 413.532C708.458 413.092 708.527 412.626 708.503 412.159C708.479 411.693 708.364 411.235 708.164 410.813C707.963 410.391 707.682 410.013 707.335 409.7C706.989 409.387 706.584 409.145 706.144 408.988V409.016Z" fill="#F46F4E"/>
<path opacity="0.5" d="M139.188 131.032C135.57 131.032 132.034 129.96 129.027 127.95C126.019 125.941 123.675 123.085 122.291 119.744C120.906 116.402 120.544 112.726 121.25 109.178C121.956 105.631 123.697 102.373 126.255 99.8154C128.813 97.258 132.072 95.5164 135.62 94.8108C139.167 94.1053 142.845 94.4674 146.187 95.8514C149.529 97.2355 152.385 99.5793 154.395 102.586C156.404 105.594 157.477 109.129 157.477 112.746C157.472 117.594 155.543 122.242 152.114 125.67C148.685 129.098 144.037 131.027 139.188 131.032ZM139.188 103.164C137.292 103.164 135.44 103.726 133.864 104.779C132.288 105.832 131.059 107.328 130.334 109.079C129.609 110.83 129.419 112.756 129.789 114.615C130.159 116.474 131.071 118.181 132.411 119.521C133.752 120.861 135.459 121.774 137.318 122.143C139.177 122.513 141.104 122.323 142.855 121.598C144.606 120.873 146.103 119.645 147.156 118.069C148.209 116.493 148.771 114.641 148.771 112.746C148.769 110.205 147.759 107.769 145.962 105.973C144.165 104.176 141.729 103.166 139.188 103.164Z" fill="#F46F4E"/>
<path opacity="0.5" d="M618.69 183.275C616.223 183.275 613.812 182.544 611.761 181.174C609.71 179.804 608.112 177.856 607.168 175.578C606.224 173.3 605.977 170.792 606.458 168.374C606.94 165.955 608.127 163.733 609.872 161.989C611.616 160.245 613.838 159.058 616.257 158.577C618.676 158.095 621.184 158.342 623.463 159.286C625.741 160.23 627.689 161.828 629.059 163.879C630.43 165.929 631.161 168.34 631.161 170.806C631.158 174.112 629.842 177.282 627.504 179.619C625.166 181.957 621.996 183.272 618.69 183.275ZM618.69 164.279C617.397 164.279 616.134 164.663 615.059 165.381C613.984 166.099 613.146 167.12 612.652 168.314C612.157 169.509 612.028 170.823 612.281 172.09C612.534 173.358 613.157 174.522 614.072 175.436C614.986 176.349 616.151 176.971 617.419 177.222C618.688 177.474 620.002 177.343 621.196 176.848C622.39 176.352 623.41 175.513 624.127 174.438C624.844 173.363 625.226 172.099 625.225 170.806C625.223 169.075 624.534 167.414 623.308 166.191C622.083 164.967 620.422 164.279 618.69 164.279Z" fill="#F46F4E"/>
<path opacity="0.5" d="M69.7994 412.934C67.3325 412.934 64.921 412.202 62.87 410.832C60.819 409.461 59.2205 407.513 58.2768 405.235C57.3331 402.956 57.0865 400.448 57.5683 398.029C58.05 395.61 59.2385 393.388 60.9833 391.645C62.7282 389.901 64.951 388.714 67.3706 388.234C69.7903 387.754 72.298 388.001 74.5767 388.946C76.8554 389.891 78.8027 391.49 80.1722 393.542C81.5417 395.593 82.272 398.005 82.2706 400.471C82.2669 403.777 80.9516 406.945 78.6134 409.282C76.2752 411.618 73.1052 412.932 69.7994 412.934ZM69.7994 393.938C68.5066 393.936 67.2425 394.318 66.1669 395.035C65.0913 395.752 64.2527 396.772 63.757 397.966C63.2613 399.16 63.1309 400.474 63.3823 401.742C63.6336 403.01 64.2555 404.175 65.1691 405.089C66.0827 406.003 67.2471 406.626 68.515 406.879C69.7828 407.132 71.0971 407.003 72.2916 406.508C73.4861 406.014 74.5071 405.177 75.2255 404.102C75.9439 403.027 76.3273 401.764 76.3273 400.471C76.3255 398.74 75.6373 397.08 74.4137 395.856C73.1901 394.631 71.5308 393.941 69.7994 393.938Z" fill="#F46F4E"/>
<path opacity="0.5" d="M662.489 276.871C661.173 276.871 659.887 276.481 658.793 275.75C657.699 275.019 656.846 273.98 656.342 272.765C655.839 271.549 655.707 270.212 655.964 268.921C656.22 267.631 656.854 266.446 657.785 265.515C658.715 264.585 659.901 263.951 661.191 263.695C662.482 263.438 663.819 263.57 665.035 264.073C666.251 264.577 667.29 265.429 668.021 266.523C668.752 267.617 669.142 268.903 669.142 270.219C669.142 271.983 668.441 273.675 667.194 274.923C665.946 276.17 664.254 276.871 662.489 276.871ZM662.489 266.733C661.801 266.733 661.128 266.937 660.556 267.319C659.984 267.702 659.538 268.245 659.274 268.881C659.011 269.516 658.942 270.216 659.076 270.891C659.211 271.566 659.542 272.186 660.029 272.672C660.515 273.159 661.135 273.49 661.81 273.624C662.485 273.759 663.185 273.69 663.821 273.426C664.457 273.163 665 272.717 665.382 272.145C665.765 271.573 665.969 270.9 665.969 270.212C665.969 269.289 665.602 268.404 664.95 267.752C664.297 267.099 663.412 266.733 662.489 266.733Z" fill="#F46F4E"/>
<path opacity="0.5" d="M77.3798 181.807C76.0636 181.807 74.777 181.417 73.6827 180.686C72.5885 179.954 71.7357 178.915 71.2323 177.699C70.729 176.483 70.5976 175.145 70.8549 173.855C71.1122 172.564 71.7465 171.379 72.6777 170.449C73.6089 169.519 74.795 168.886 76.0861 168.63C77.3771 168.374 78.7151 168.507 79.9306 169.011C81.1462 169.516 82.1848 170.37 82.9151 171.464C83.6453 172.559 84.0343 173.846 84.0329 175.162C84.0293 176.925 83.3269 178.614 82.0798 179.859C80.8327 181.105 79.1425 181.805 77.3798 181.807ZM77.3798 171.676C76.6915 171.676 76.0188 171.88 75.4465 172.262C74.8743 172.645 74.4283 173.188 74.1649 173.824C73.9016 174.459 73.8326 175.159 73.9669 175.834C74.1012 176.509 74.4326 177.129 74.9192 177.615C75.4059 178.102 76.0259 178.433 76.7009 178.567C77.3759 178.702 78.0755 178.633 78.7114 178.369C79.3472 178.106 79.8907 177.66 80.273 177.088C80.6554 176.516 80.8595 175.843 80.8595 175.155C80.8595 174.232 80.4928 173.347 79.8403 172.695C79.1877 172.042 78.3026 171.676 77.3798 171.676Z" fill="#F46F4E"/>
<path opacity="0.9" d="M565.757 87.0209H361.61V66.1461C361.61 63.2284 360.451 60.4303 358.388 58.3672C356.324 56.3041 353.526 55.145 350.607 55.145H237.315C234.397 55.145 231.599 56.3041 229.535 58.3672C227.472 60.4303 226.313 63.2284 226.313 66.1461V373.626C226.308 375.074 226.589 376.508 227.14 377.847C227.691 379.185 228.501 380.402 229.523 381.427C230.545 382.453 231.76 383.266 233.097 383.821C234.434 384.376 235.868 384.662 237.315 384.662H565.757C568.676 384.662 571.474 383.503 573.538 381.44C575.601 379.377 576.76 376.578 576.76 373.661V98.022C576.76 95.1043 575.601 92.3062 573.538 90.2431C571.474 88.18 568.676 87.0209 565.757 87.0209Z" fill="#F46F4E"/>
<path d="M565.757 386.68H237.315C233.854 386.674 230.537 385.297 228.091 382.85C225.645 380.403 224.269 377.086 224.266 373.626V66.1324C224.269 62.6726 225.645 59.3555 228.091 56.9085C230.537 54.4614 233.854 53.0841 237.315 53.0786H350.607C354.068 53.0841 357.385 54.4612 359.832 56.9081C362.28 59.3549 363.657 62.672 363.662 66.1324V84.9685H565.757C569.218 84.9721 572.537 86.3486 574.984 88.7959C577.432 91.2431 578.809 94.5613 578.812 98.0222V373.626C578.809 377.087 577.432 380.405 574.984 382.853C572.537 385.3 569.218 386.676 565.757 386.68ZM228.365 98.0361V373.626C228.368 375.998 229.312 378.272 230.99 379.95C232.668 381.627 234.942 382.571 237.315 382.575H565.757C568.13 382.573 570.405 381.629 572.083 379.952C573.761 378.274 574.704 375.999 574.706 373.626V98.0222C574.704 95.6495 573.761 93.3745 572.083 91.6968C570.405 90.0191 568.13 89.0757 565.757 89.0738H361.609C361.062 89.0739 360.536 88.8588 360.145 88.4748C359.755 88.0908 359.531 87.5687 359.522 87.0212V66.1463C359.518 63.7742 358.574 61.5002 356.896 59.8229C355.219 58.1456 352.944 57.2016 350.572 57.1979H237.315C234.942 57.2016 232.668 58.1456 230.99 59.8229C229.312 61.5002 228.368 63.7742 228.365 66.1463V98.0501V98.0361Z" fill="#F46F4E"/>
<path d="M226.313 115.376V373.626C226.308 375.074 226.589 376.508 227.14 377.847C227.691 379.185 228.501 380.402 229.523 381.427C230.545 382.453 231.76 383.266 233.097 383.821C234.434 384.376 235.868 384.662 237.315 384.662H565.757C568.676 384.662 571.474 383.503 573.538 381.44C575.601 379.377 576.76 376.578 576.76 373.661V115.376H226.313Z" fill="white"/>
<path d="M565.757 386.68H237.315C233.854 386.674 230.537 385.297 228.091 382.85C225.645 380.403 224.269 377.086 224.266 373.626V113.344H578.812V373.626C578.809 377.087 577.432 380.405 574.984 382.852C572.537 385.3 569.218 386.676 565.757 386.68ZM228.365 117.464V373.626C228.368 375.998 229.312 378.272 230.99 379.949C232.668 381.627 234.942 382.571 237.315 382.574H565.757C568.13 382.573 570.405 381.629 572.083 379.952C573.761 378.274 574.704 375.999 574.706 373.626V117.464H228.365Z" fill="#F46F4E"/>
<path opacity="0.4" d="M433.203 256.97L490.068 269.495L487.354 295.937L480.743 308.037L466.434 315.524H452.87C452.348 315.524 440.817 308.921 440.817 308.921L434.734 296.813L433.203 283.391V256.97Z" fill="#F46F4E"/>
<path d="M331.355 214.428C331.148 214.635 330.902 214.799 330.632 214.911C330.361 215.024 330.071 215.081 329.779 215.081C329.486 215.081 329.196 215.024 328.925 214.911C328.655 214.799 328.409 214.635 328.202 214.428L298.423 184.653C298.215 184.446 298.049 184.2 297.937 183.929C297.824 183.658 297.766 183.367 297.766 183.074C297.766 182.78 297.824 182.489 297.937 182.218C298.049 181.947 298.215 181.701 298.423 181.494C298.63 181.287 298.876 181.122 299.146 181.01C299.416 180.898 299.706 180.84 299.999 180.84C300.292 180.84 300.582 180.898 300.853 181.01C301.123 181.122 301.369 181.287 301.576 181.494L331.355 211.269C331.563 211.476 331.729 211.722 331.841 211.993C331.954 212.264 332.012 212.555 332.012 212.848C332.012 213.142 331.954 213.432 331.841 213.704C331.729 213.975 331.563 214.221 331.355 214.428Z" fill="#F46F4E"/>
<path d="M298.423 214.427C298.215 214.22 298.049 213.974 297.937 213.703C297.824 213.432 297.766 213.141 297.766 212.848C297.766 212.554 297.824 212.264 297.937 211.992C298.049 211.721 298.215 211.475 298.423 211.268L328.202 181.48C328.409 181.273 328.655 181.108 328.925 180.996C329.196 180.884 329.486 180.826 329.779 180.826C330.071 180.826 330.361 180.884 330.632 180.996C330.902 181.108 331.148 181.273 331.355 181.48C331.563 181.687 331.729 181.933 331.841 182.204C331.954 182.475 332.012 182.766 332.012 183.059C332.012 183.353 331.954 183.644 331.841 183.915C331.729 184.186 331.563 184.432 331.355 184.639L301.576 214.413C301.369 214.621 301.123 214.785 300.853 214.897C300.582 215.01 300.292 215.067 299.999 215.067C299.706 215.067 299.416 215.01 299.146 214.897C298.876 214.785 298.63 214.621 298.423 214.413V214.427Z" fill="#F46F4E"/>
<path d="M497.601 214.427C497.181 214.845 496.613 215.079 496.021 215.079C495.429 215.079 494.861 214.845 494.441 214.427L464.683 184.653C464.266 184.233 464.031 183.665 464.031 183.073C464.031 182.481 464.266 181.914 464.683 181.494C465.103 181.076 465.671 180.842 466.263 180.842C466.855 180.842 467.423 181.076 467.842 181.494L497.601 211.268C498.018 211.688 498.252 212.256 498.252 212.848C498.252 213.44 498.018 214.008 497.601 214.427Z" fill="#F46F4E"/>
<path d="M464.683 214.428C464.266 214.008 464.031 213.44 464.031 212.848C464.031 212.256 464.266 211.688 464.683 211.269L494.462 181.48C494.882 181.063 495.45 180.829 496.042 180.829C496.634 180.829 497.202 181.063 497.622 181.48C497.829 181.687 497.994 181.934 498.106 182.205C498.218 182.476 498.276 182.766 498.276 183.06C498.276 183.353 498.218 183.643 498.106 183.914C497.994 184.185 497.829 184.432 497.622 184.639L467.842 214.414C467.423 214.831 466.855 215.065 466.263 215.065C465.671 215.065 465.103 214.831 464.683 214.414V214.428Z" fill="#F46F4E"/>
<path d="M505.867 277.546C505.569 277.545 505.274 277.489 504.997 277.379C440.174 251.613 367.949 251.613 303.125 277.379C302.836 277.506 302.524 277.574 302.208 277.577C301.892 277.581 301.579 277.521 301.286 277.401C300.994 277.281 300.729 277.103 300.507 276.878C300.285 276.653 300.11 276.386 299.994 276.092C299.877 275.799 299.821 275.484 299.829 275.169C299.836 274.853 299.908 274.542 300.038 274.254C300.169 273.966 300.356 273.708 300.589 273.494C300.821 273.28 301.095 273.115 301.393 273.009C367.348 246.902 440.774 246.902 506.73 273.009C507.237 273.212 507.659 273.584 507.921 274.063C508.184 274.542 508.272 275.097 508.17 275.634C508.068 276.17 507.782 276.655 507.362 277.004C506.942 277.353 506.413 277.545 505.867 277.546Z" fill="#F46F4E"/>
<path d="M460.242 318.809C452.282 318.8 444.651 315.634 439.022 310.007C433.394 304.379 430.228 296.749 430.219 288.791V257.945C430.219 257.321 430.467 256.723 430.908 256.282C431.349 255.841 431.947 255.593 432.571 255.593C433.195 255.593 433.793 255.841 434.234 256.282C434.675 256.723 434.923 257.321 434.923 257.945V288.791C434.923 295.505 437.591 301.943 442.339 306.691C447.087 311.438 453.527 314.105 460.242 314.105C466.956 314.105 473.396 311.438 478.144 306.691C482.892 301.943 485.56 295.505 485.56 288.791V269.454C485.56 268.83 485.808 268.232 486.249 267.791C486.69 267.35 487.288 267.102 487.912 267.102C488.536 267.102 489.134 267.35 489.576 267.791C490.017 268.232 490.264 268.83 490.264 269.454V288.791C490.255 296.749 487.089 304.379 481.461 310.007C475.832 315.634 468.201 318.8 460.242 318.809Z" fill="#F46F4E"/>
<path d="M460.243 297.92C459.619 297.92 459.021 297.672 458.58 297.231C458.138 296.79 457.891 296.192 457.891 295.568V262.168C457.891 261.545 458.138 260.946 458.58 260.505C459.021 260.064 459.619 259.816 460.243 259.816C460.867 259.816 461.465 260.064 461.906 260.505C462.347 260.946 462.595 261.545 462.595 262.168V295.568C462.595 296.192 462.347 296.79 461.906 297.231C461.465 297.672 460.867 297.92 460.243 297.92Z" fill="#F46F4E"/>
<path d="M257.79 101.669C254.074 101.669 250.441 100.567 247.351 98.5023C244.261 96.4379 241.853 93.5037 240.43 90.0708C239.008 86.6378 238.636 82.8603 239.361 79.2159C240.086 75.5715 241.876 72.2239 244.504 69.5965C247.131 66.969 250.48 65.1797 254.125 64.4548C257.77 63.7298 261.548 64.1019 264.981 65.5239C268.415 66.9458 271.349 69.3539 273.414 72.4434C275.479 75.533 276.581 79.1653 276.581 82.8811C276.581 87.8639 274.601 92.6425 271.077 96.1658C267.553 99.6891 262.774 101.669 257.79 101.669ZM257.79 69.2707C255.098 69.2721 252.467 70.0715 250.23 71.5679C247.992 73.0642 246.248 75.1904 245.219 77.6775C244.19 80.1646 243.921 82.901 244.447 85.5407C244.973 88.1804 246.27 90.6049 248.174 92.5076C250.078 94.4104 252.504 95.706 255.144 96.2305C257.785 96.7551 260.521 96.4852 263.008 95.4549C265.495 94.4245 267.621 92.68 269.116 90.442C270.612 88.2039 271.41 85.5727 271.41 82.8811C271.404 79.2719 269.968 75.8122 267.414 73.2608C264.861 70.7093 261.4 69.2744 257.79 69.2707Z" fill="white"/>
<path d="M262.02 74.7118L257.573 79.1512L253.133 74.7118C252.593 74.2113 251.88 73.9395 251.144 73.9534C250.408 73.9673 249.706 74.2659 249.185 74.7865C248.665 75.307 248.366 76.009 248.352 76.7451C248.338 77.4811 248.61 78.1939 249.111 78.7337L253.551 83.1801L249.145 87.6195C248.645 88.1593 248.373 88.8721 248.387 89.6082C248.401 90.3442 248.699 91.0462 249.22 91.5667C249.741 92.0873 250.443 92.3859 251.179 92.3998C251.915 92.4137 252.628 92.1419 253.168 91.6414L257.608 87.202L262.055 91.6414C262.595 92.1419 263.308 92.4137 264.044 92.3998C264.78 92.3859 265.482 92.0873 266.003 91.5667C266.524 91.0462 266.822 90.3442 266.836 89.6082C266.85 88.8721 266.578 88.1593 266.078 87.6195L261.638 83.1731L266.078 78.7337C266.358 78.4735 266.584 78.1593 266.74 77.8099C266.897 77.4606 266.981 77.0832 266.988 76.7005C266.996 76.3178 266.926 75.9375 266.782 75.5825C266.639 75.2275 266.426 74.905 266.155 74.6343C265.884 74.3637 265.562 74.1504 265.207 74.0072C264.852 73.8641 264.471 73.7941 264.089 73.8013C263.706 73.8085 263.328 73.8929 262.979 74.0493C262.63 74.2058 262.315 74.4311 262.055 74.7118H262.02Z" fill="white"/>
</svg>
