<svg width="30" height="30" viewBox="0 0 30 30" fill="none" xmlns="http://www.w3.org/2000/svg">
<path fill-rule="evenodd" clip-rule="evenodd" d="M8.07777 8.4998C8.07777 5.10459 11.1464 2.2998 15 2.2998C18.8535 2.2998 21.9222 5.10459 21.9222 8.4998C21.9222 11.895 18.8535 14.6998 15 14.6998C11.1464 14.6998 8.07777 11.895 8.07777 8.4998ZM15 4.2998C12.4716 4.2998 10.3667 6.15126 10.3667 8.4998C10.3667 10.8484 12.4716 12.6998 15 12.6998C17.5284 12.6998 19.6333 10.8484 19.6333 8.4998C19.6333 6.15126 17.5284 4.2998 15 4.2998ZM3.53379 20.4473C5.13161 19.1851 8.63827 17.2498 15 17.2498C21.3617 17.2498 24.8684 19.1851 26.4662 20.4473C27.3949 21.1809 27.7 22.2139 27.7 23.1179C27.7 25.6194 25.4362 27.6998 22.5756 27.6998H7.42437C4.56374 27.6998 2.29999 25.6194 2.29999 23.1179C2.29999 22.2139 2.6051 21.1809 3.53379 20.4473ZM15 19.2498C9.22328 19.2498 6.25849 20.9897 5.06755 21.9305C4.77911 22.1584 4.58888 22.5591 4.58888 23.1179C4.58888 24.5728 5.88888 25.6998 7.42437 25.6998H22.5756C24.1111 25.6998 25.4111 24.5728 25.4111 23.1179C25.4111 22.5591 25.2209 22.1584 24.9324 21.9305C23.7415 20.9897 20.7767 19.2498 15 19.2498Z" fill="white"/>
</svg>
